#N canvas 157 75 1397 755 10;
#X obj 268 17 cnv 15 700 100 empty empty GPIO_OUTPUTS 20 12 0 14 -233017
-66577 0;
#X obj 289 47 r gpio2;
#X obj 289 69 gpio 2;
#X obj 349 47 r gpio3;
#X obj 349 69 gpio 3;
#X obj 409 47 r gpio4;
#X obj 409 69 gpio 4;
#X obj 469 47 r gpio17;
#X obj 469 69 gpio 17;
#X obj 539 47 r gpio27;
#X obj 539 69 gpio 27;
#X obj 609 47 r gpio22;
#X obj 609 69 gpio 22;
#X obj 289 91 tgl 15 0 empty empty empty 17 7 0 10 -262144 -1 -1 0
1;
#X obj 349 91 tgl 15 0 empty empty empty 17 7 0 10 -262144 -1 -1 0
1;
#X obj 409 91 tgl 15 0 empty empty empty 17 7 0 10 -262144 -1 -1 0
1;
#X obj 469 91 tgl 15 0 empty empty empty 17 7 0 10 -262144 -1 -1 0
1;
#X obj 539 91 tgl 15 0 empty empty empty 17 7 0 10 -262144 -1 -1 0
1;
#X obj 609 91 tgl 15 0 empty empty empty 17 7 0 10 -262144 -1 -1 0
1;
#X obj 679 47 r gpio23;
#X obj 679 69 gpio 23;
#X obj 679 91 tgl 15 0 empty empty empty 17 7 0 10 -262144 -1 -1 0
1;
#X obj 749 91 tgl 15 0 empty empty empty 17 7 0 10 -262144 -1 -1 0
1;
#X obj 819 91 tgl 15 0 empty empty empty 17 7 0 10 -262144 -1 -1 0
1;
#X obj 749 47 r gpio24;
#X obj 749 69 gpio 24;
#X obj 819 47 r gpio25;
#X obj 819 69 gpio 25;
#X obj 22 17 cnv 15 160 150 empty empty INIT 20 12 0 14 -233017 -66577
0;
#N canvas 476 51 939 312 init 0;
#X obj 82 16 loadbang;
#X obj 122 49 delay 100;
#X msg 22 100 \; pd dsp 1 \;;
#X obj 122 100 ./setGpio 2;
#X obj 560 122 pow -1;
#X obj 560 144 * 1000;
#X floatatom 560 188 5 0 0 0 - - -;
#X obj 153 16 inlet;
#X obj 560 207 s framerate;
#X obj 222 100 ./setGpio 3;
#X obj 322 100 ./setGpio 4;
#X obj 122 130 ./setGpio 17;
#X obj 222 130 ./setGpio 27;
#X obj 322 130 ./setGpio 22;
#X obj 122 160 ./setGpio 23;
#X obj 222 160 ./setGpio 24;
#X obj 322 160 ./setGpio 25;
#X obj 560 166 int;
#X msg 560 100 25;
#N canvas 0 51 450 300 setGpioOutput 0;
#X obj 83 29 inlet;
#X msg 153 93 open 1;
#X msg 83 93 enable 1;
#X obj 83 51 t b b b b;
#X msg 212 93 output 0;
#X obj 83 145 s gpio18;
#X connect 0 0 3 0;
#X connect 1 0 5 0;
#X connect 2 0 5 0;
#X connect 3 1 4 0;
#X connect 3 2 1 0;
#X connect 3 3 2 0;
#X connect 4 0 5 0;
#X restore 422 100 pd setGpioOutput;
#X connect 0 0 1 0;
#X connect 1 0 3 0;
#X connect 1 0 18 0;
#X connect 1 0 2 0;
#X connect 1 0 9 0;
#X connect 1 0 10 0;
#X connect 1 0 11 0;
#X connect 1 0 12 0;
#X connect 1 0 13 0;
#X connect 1 0 14 0;
#X connect 1 0 15 0;
#X connect 1 0 16 0;
#X connect 1 0 19 0;
#X connect 4 0 5 0;
#X connect 5 0 17 0;
#X connect 6 0 8 0;
#X connect 7 0 1 0;
#X connect 17 0 6 0;
#X connect 18 0 4 0;
#X restore 42 47 pd init;
#N canvas 0 51 833 494 old 0;
#X obj 79 202 ggee/shell;
#X obj 146 224 t b;
#X msg 79 180 ./gpioValues.sh \$1 \$2 \$3 \$4 \$5 \$6 \$7 \$8 \$9;
#X msg 565 117 print;
#X obj 573 142 tgl 15 0 empty empty empty 17 7 0 10 -262144 -1 -1 0
1;
#X obj 555 169 readsf~ 2;
#X obj 555 321 dac~;
#X obj 618 230 +~;
#X obj 536 212 tgl 15 1 empty empty empty 17 7 0 10 -262144 -1 -1 1
1;
#X obj 555 231 *~ 0;
#X obj 576 251 *~ 0;
#X obj 618 252 *~ 0;
#X obj 645 232 tgl 15 0 empty empty empty 17 7 0 10 -262144 -1 -1 0
1;
#X obj 668 252 *~ 0;
#X obj 695 232 tgl 15 0 empty empty empty 17 7 0 10 -262144 -1 -1 0
1;
#X obj 668 230 -~;
#X obj 655 287 -~;
#X msg 595 140 stop;
#N canvas 451 230 865 487 files 0;
#X obj 25 259 outlet;
#X obj 25 20 inlet;
#X msg 25 70 open ../tif/1_1_dim100i.tif 0 1 2 2 b \, 1;
#X msg 25 90 open ../tif/1_dim200i.tif 0 1 2 2 b \, 1;
#X msg 25 110 open ../tif/1_dim100i.tif 0 1 2 2 b \, 1;
#X msg 25 130 open ../tif/1_dim50i.tif 0 1 2 2 b \, 1;
#X msg 25 150 open ../tif/1_dim10i.tif 0 1 2 2 b \, 1;
#X msg 325 70 open ../tif/1_1_dim100p.tif 0 1 2 2 b \, 1;
#X msg 325 90 open ../tif/1_dim200p.tif 0 1 2 2 b \, 1;
#X msg 325 110 open ../tif/1_dim100p.tif 0 1 2 2 b \, 1;
#X msg 325 130 open ../tif/1_dim50p.tif 0 1 2 2 b \, 1;
#X msg 325 150 open ../tif/1_dim10p.tif 0 1 2 2 b \, 1;
#X msg 324 187 open ../tif/ardenne-1p.tif 0 1 2 2 b \, 1;
#X msg 324 208 open ../tif/ardenne-1i.tif 0 1 2 2 b \, 1;
#X msg 324 229 open ../tif/rockEnSeine.tif 0 1 2 2 b \, 1;
#X obj 25 42 sel 0 1 2;
#X connect 1 0 15 0;
#X connect 2 0 0 0;
#X connect 3 0 0 0;
#X connect 4 0 0 0;
#X connect 5 0 0 0;
#X connect 6 0 0 0;
#X connect 7 0 0 0;
#X connect 8 0 0 0;
#X connect 9 0 0 0;
#X connect 10 0 0 0;
#X connect 11 0 0 0;
#X connect 12 0 0 0;
#X connect 13 0 0 0;
#X connect 14 0 0 0;
#X connect 15 0 4 0;
#X connect 15 1 14 0;
#X connect 15 2 13 0;
#X restore 555 93 pd files;
#N canvas 78 199 450 300 waitBeforeNewOne 0;
#X obj 58 33 inlet;
#X msg 90 79 0 0 0 0 0 0 0 0 0;
#X obj 90 101 sendToGpio;
#X obj 58 55 t b b;
#X obj 58 147 delay;
#X obj 58 169 outlet;
#X obj 108 33 inlet;
#X connect 0 0 3 0;
#X connect 1 0 2 0;
#X connect 3 0 4 0;
#X connect 3 1 1 0;
#X connect 4 0 5 0;
#X connect 6 0 4 1;
#X restore 615 190 pd waitBeforeNewOne;
#X obj 629 389 bng 15 250 50 0 empty empty empty 17 7 0 10 -262144
-1 -1;
#X obj 678 346 print done;
#X msg 552 25 0;
#X msg 562 45 1;
#X msg 572 65 2;
#X connect 0 1 1 0;
#X connect 2 0 0 0;
#X connect 3 0 5 0;
#X connect 4 0 5 0;
#X connect 5 0 9 0;
#X connect 5 0 7 0;
#X connect 5 0 15 0;
#X connect 5 1 10 0;
#X connect 5 1 7 1;
#X connect 5 1 15 1;
#X connect 5 2 19 0;
#X connect 5 2 21 0;
#X connect 7 0 11 0;
#X connect 8 0 9 1;
#X connect 8 0 10 1;
#X connect 9 0 6 0;
#X connect 10 0 6 1;
#X connect 11 0 16 0;
#X connect 12 0 11 1;
#X connect 13 0 16 1;
#X connect 14 0 13 1;
#X connect 15 0 13 0;
#X connect 17 0 5 0;
#X connect 18 0 5 0;
#X connect 19 0 20 0;
#X connect 22 0 18 0;
#X connect 23 0 18 0;
#X connect 24 0 18 0;
#X restore 22 190 pd old;
#X obj 104 47 bng 15 250 50 0 empty empty RESET 17 7 0 10 -262144 -1
-1;
#X obj 842 385 cnv 15 300 200 empty empty STUFF 20 12 0 14 -233017
-66577 0;
#X obj 866 411 set0onValue;
#X obj 866 431 set0ifRepetition;
#X obj 866 451 setMinAndMaxValues 150 400;
#X obj 866 471 separateAt0;
#X obj 342 216 cnv 15 300 350 empty empty FILES_TO_SOUND 20 12 0 14
-233017 -66577 0;
#N canvas 628 150 450 300 waitBeforeNewOne 0;
#X obj 58 33 inlet;
#X msg 81 129 0 0 0 0 0 0 0 0 0;
#X obj 81 151 sendToGpio;
#X obj 58 249 outlet;
#X obj 308 33 inlet;
#X obj 58 55 t b b b;
#X msg 104 79 0;
#X obj 104 101 s metroOnOff;
#X obj 58 177 delay 6000;
#X connect 0 0 5 0;
#X connect 1 0 2 0;
#X connect 4 0 8 1;
#X connect 5 0 8 0;
#X connect 5 1 1 0;
#X connect 5 2 6 0;
#X connect 6 0 7 0;
#X connect 8 0 3 0;
#X restore 475 426 pd waitBeforeNewOne;
#X obj 415 457 *~ 1;
#X obj 445 477 *~ 1;
#X obj 415 539 dac~;
#N canvas 0 51 450 300 outHip 0;
#X obj 57 33 inlet~;
#X obj 57 55 hip~ 20;
#X obj 57 77 hip~ 20;
#X obj 57 99 outlet~;
#X obj 137 33 inlet~;
#X obj 137 55 hip~ 20;
#X obj 137 77 hip~ 20;
#X obj 137 99 outlet~;
#X connect 0 0 1 0;
#X connect 1 0 2 0;
#X connect 2 0 3 0;
#X connect 4 0 5 0;
#X connect 5 0 6 0;
#X connect 6 0 7 0;
#X restore 415 514 pd outHip;
#X obj 22 305 cnv 15 300 300 empty empty SOUND_TO_GPIO 20 12 0 14 -233017
-66577 0;
#X obj 92 579 sendToGpio;
#X obj 125 436 snapshot~;
#X floatatom 125 458 10 0 0 0 - - -;
#X obj 125 415 bng 15 250 50 0 empty empty empty 17 7 0 10 -262144
-1 -1;
#X obj 125 350 r framerate;
#X obj 125 372 t b f;
#X obj 125 393 metro;
#X obj 35 350 r metroOnOff;
#X obj 35 370 tgl 15 0 empty empty empty 17 7 0 10 -262144 -1 -1 0
1;
#X obj 395 263 bng 15 250 50 0 empty empty empty 17 7 0 10 -262144
-1 -1;
#X obj 415 406 readsf~ 2;
#X floatatom 180 579 5 0 0 0 - - -;
#X obj 92 551 to9bitsOutput;
#X obj 866 512 mapTo9bits;
#X obj 92 502 mapTo9bits;
#X obj 92 524 set0ifRepetition;
#X obj 866 491 to9bitsOutput;
#X obj 866 533 leftRightLoops;
#X obj 866 554 setOneBar;
#X obj 971 533 backToFrontLoop;
#N canvas 740 54 450 300 files 0;
#X obj 53 38 inlet;
#X obj 53 246 outlet;
#X obj 53 60 sel 0 1 2 3 4 5 6;
#X msg 53 89 open ../tif/mamie2.tif 0 1 2 2 b \, 1;
#X msg 152 216 open ../tif/mamie3.tif 0 1 2 2 b \, 1;
#X msg 119 255 open ../tif/arina_02.tif 0 1 2 2 b \, 1;
#X msg 86 133 open ../tif/ardenne-1p.tif 0 1 2 2 b \, 1;
#X msg 119 175 open ../tif/1_dim100i.tif 0 1 2 2 b \, 1;
#X msg 119 280 open ../tif/arina2_02.tif 0 1 2 2 b \, 1;
#X msg 69 110 open ../tif/rockEnSeine.tif 0 1 2 2 b \, 1;
#X msg 102 154 open ../tif/arina2_02.tif 0 1 2 2 b \, 1;
#X msg 135 196 open ../tif/arina_02.tif 0 1 2 2 b \, 1;
#X connect 0 0 2 0;
#X connect 2 0 6 0;
#X connect 2 1 9 0;
#X connect 2 2 3 0;
#X connect 2 3 10 0;
#X connect 2 4 7 0;
#X connect 2 5 11 0;
#X connect 2 6 4 0;
#X connect 3 0 1 0;
#X connect 4 0 1 0;
#X connect 6 0 1 0;
#X connect 7 0 1 0;
#X connect 9 0 1 0;
#X connect 10 0 1 0;
#X connect 11 0 1 0;
#X restore 415 334 pd files;
#X obj 42 70 loadbang;
#X msg 425 356 1;
#X obj 425 378 s metroOnOff;
#X obj 971 553 frontToBackLoop;
#X obj 475 449 s selectNewFile;
#X obj 415 285 f 0;
#X obj 445 285 + 1;
#N canvas 245 120 450 300 proposalSound 0;
#X msg 84 100 open ../sounds/proposal\$1.wav \, 1;
#X obj 84 122 readsf~ 2;
#N canvas 0 51 450 300 outHip 0;
#X obj 57 33 inlet~;
#X obj 57 55 hip~ 20;
#X obj 57 77 hip~ 20;
#X obj 57 99 outlet~;
#X obj 137 33 inlet~;
#X obj 137 55 hip~ 20;
#X obj 137 77 hip~ 20;
#X obj 137 99 outlet~;
#X connect 0 0 1 0;
#X connect 1 0 2 0;
#X connect 2 0 3 0;
#X connect 4 0 5 0;
#X connect 5 0 6 0;
#X connect 6 0 7 0;
#X restore 84 204 pd outHip;
#X obj 84 226 dac~;
#X obj 174 226 outlet;
#X obj 174 202 f;
#X obj 174 182 delay 1000;
#X obj 84 145 *~ 0.8;
#X obj 115 164 *~ 0.8;
#X obj 84 27 sel 0 6;
#X connect 0 0 1 0;
#X connect 1 0 7 0;
#X connect 1 1 8 0;
#X connect 1 2 6 0;
#X connect 2 0 3 0;
#X connect 2 1 3 1;
#X connect 5 0 4 0;
#X connect 6 0 5 0;
#X connect 7 0 2 0;
#X connect 8 0 2 1;
#X connect 9 2 0 0;
#X restore 515 301 pd proposalSound;
#X msg 355 378 stop;
#X obj 889 91 tgl 15 0 empty empty empty 17 7 0 10 -262144 -1 -1 0
1;
#X obj 889 47 r gpio18;
#X obj 889 69 gpio 18;
#X obj 1018 59 bng 15 250 50 0 empty empty empty 17 7 0 10 -262144
-1 -1;
#X obj 1018 79 s gpio18;
#X obj 1018 14 loadbang;
#X obj 889 130 change;
#X obj 889 152 sel 0;
#X obj 889 174 f;
#X obj 919 174 + 1;
#X obj 889 196 % 2;
#X floatatom 889 218 5 0 0 0 - - -;
#X obj 889 237 sel 0 1;
#X obj 889 259 s start;
#X obj 912 279 s stop;
#X obj 355 353 r stop;
#X obj 395 240 r start;
#X obj 415 263 r selectNewFile;
#X obj 1018 36 metro 50;
#X floatatom 445 310 5 0 0 0 - - -;
#X obj 415 307 % 7;
#X obj 535 263 r reset;
#X connect 1 0 2 0;
#X connect 2 0 13 0;
#X connect 3 0 4 0;
#X connect 4 0 14 0;
#X connect 5 0 6 0;
#X connect 6 0 15 0;
#X connect 7 0 8 0;
#X connect 8 0 16 0;
#X connect 9 0 10 0;
#X connect 10 0 17 0;
#X connect 11 0 12 0;
#X connect 12 0 18 0;
#X connect 19 0 20 0;
#X connect 20 0 21 0;
#X connect 24 0 25 0;
#X connect 25 0 22 0;
#X connect 26 0 27 0;
#X connect 27 0 23 0;
#X connect 31 0 29 0;
#X connect 38 0 69 0;
#X connect 39 0 42 0;
#X connect 40 0 42 1;
#X connect 42 0 41 0;
#X connect 42 1 41 1;
#X connect 45 0 46 0;
#X connect 45 0 58 0;
#X connect 47 0 45 0;
#X connect 48 0 49 0;
#X connect 49 0 50 0;
#X connect 49 1 50 1;
#X connect 50 0 47 0;
#X connect 51 0 52 0;
#X connect 52 0 50 0;
#X connect 53 0 70 0;
#X connect 54 0 39 0;
#X connect 54 0 45 0;
#X connect 54 1 40 0;
#X connect 54 2 38 0;
#X connect 56 0 44 0;
#X connect 56 1 55 0;
#X connect 58 0 59 0;
#X connect 59 0 56 0;
#X connect 64 0 54 0;
#X connect 64 0 66 0;
#X connect 65 0 53 0;
#X connect 66 0 67 0;
#X connect 70 0 71 0;
#X connect 70 0 94 0;
#X connect 71 0 70 1;
#X connect 73 0 54 0;
#X connect 74 0 80 0;
#X connect 75 0 76 0;
#X connect 76 0 74 0;
#X connect 77 0 78 0;
#X connect 79 0 92 0;
#X connect 80 0 81 0;
#X connect 81 0 82 0;
#X connect 82 0 83 0;
#X connect 82 0 84 0;
#X connect 83 0 82 1;
#X connect 84 0 85 0;
#X connect 85 0 86 0;
#X connect 86 0 87 0;
#X connect 86 1 88 0;
#X connect 89 0 73 0;
#X connect 90 0 53 0;
#X connect 91 0 70 0;
#X connect 92 0 77 0;
#X connect 94 0 64 0;
#X connect 94 0 93 0;
#X connect 95 0 70 1;
