#N canvas 707 216 450 300 10;
#X floatatom 95 32 5 0 0 0 - - -;
#X obj 95 73 t b f;
#X obj 95 95 metro;
#X obj 95 11 inlet;
#X obj 95 117 f 0;
#X obj 25 13 inlet;
#X obj 25 34 tgl 15 0 empty empty empty 17 7 0 10 -262144 -1 -1 1 1
;
#X obj 25 74 t f b;
#X msg 57 96 0;
#X obj 95 51 abs;
#X msg 95 221 0 0 0 0 0 0 0 0 0;
#X msg 180 321 0 0 0 0 1 0 0 0 0;
#X obj 95 349 outlet;
#X msg 112 241 1 0 0 0 0 0 0 0 1;
#X msg 129 261 0 1 0 0 0 0 0 1 0;
#X msg 146 281 0 0 1 0 0 0 1 0 0;
#X msg 163 301 0 0 0 1 0 1 0 0 0;
#X obj 95 200 sel 0 1 2 3 4 5;
#X obj 95 159 % 6;
#X obj 125 117 - 1;
#X obj 95 139 abs;
#X connect 0 0 9 0;
#X connect 1 0 2 0;
#X connect 1 1 2 1;
#X connect 2 0 4 0;
#X connect 3 0 0 0;
#X connect 4 0 19 0;
#X connect 4 0 20 0;
#X connect 5 0 6 0;
#X connect 6 0 7 0;
#X connect 7 0 2 0;
#X connect 7 1 8 0;
#X connect 8 0 4 1;
#X connect 9 0 1 0;
#X connect 10 0 12 0;
#X connect 11 0 12 0;
#X connect 13 0 12 0;
#X connect 14 0 12 0;
#X connect 15 0 12 0;
#X connect 16 0 12 0;
#X connect 17 0 10 0;
#X connect 17 1 13 0;
#X connect 17 2 14 0;
#X connect 17 3 15 0;
#X connect 17 4 16 0;
#X connect 17 5 11 0;
#X connect 18 0 17 0;
#X connect 19 0 4 1;
#X connect 20 0 18 0;
