#N canvas 692 151 480 337 10;
#X floatatom 95 12 5 0 0 0 - - -;
#X obj 95 53 t b f;
#X obj 95 75 metro;
#X obj 95 -9 inlet;
#X obj 125 97 + 1;
#X obj 95 97 f 0;
#X obj 95 141 + 1;
#X floatatom 95 283 5 0 0 0 - - -;
#X obj 95 302 outlet;
#X obj 25 -7 inlet;
#X obj 25 14 tgl 15 0 empty empty empty 17 7 0 10 -262144 -1 -1 1 1
;
#X obj 25 54 t f b;
#X msg 57 76 0;
#X obj 95 163 t f f;
#X obj 95 119 % 16;
#X msg 288 212 0;
#X msg 334 212 1;
#X obj 288 190 moses 10;
#X obj 95 260 expr if($f2==0 \, $f1 \, 18-$f1);
#X obj 95 31 abs;
#X connect 0 0 19 0;
#X connect 1 0 2 0;
#X connect 1 1 2 1;
#X connect 2 0 5 0;
#X connect 3 0 0 0;
#X connect 4 0 5 1;
#X connect 5 0 4 0;
#X connect 5 0 14 0;
#X connect 6 0 13 0;
#X connect 7 0 8 0;
#X connect 9 0 10 0;
#X connect 10 0 11 0;
#X connect 11 0 2 0;
#X connect 11 1 12 0;
#X connect 12 0 5 1;
#X connect 13 0 18 0;
#X connect 13 1 17 0;
#X connect 14 0 6 0;
#X connect 15 0 18 1;
#X connect 16 0 18 1;
#X connect 17 0 15 0;
#X connect 17 1 16 0;
#X connect 18 0 7 0;
#X connect 19 0 1 0;
