#N canvas 646 228 450 300 10;
#X obj 77 62 int;
#X obj 77 17 + 1;
#X obj 77 39 * 256;
#X obj 77 -5 inlet;
#X obj 77 84 outlet;
#X connect 0 0 4 0;
#X connect 1 0 2 0;
#X connect 2 0 0 0;
#X connect 3 0 1 0;
