#N canvas -3 51 450 300 10;
#X obj 94 58 inlet;
#X obj 94 80 unpack f f f f f f f f f;
#X obj 94 102 s gpio2;
#X obj 114 122 s gpio3;
#X obj 135 142 s gpio4;
#X obj 155 162 s gpio17;
#X obj 176 182 s gpio27;
#X obj 197 202 s gpio22;
#X obj 217 222 s gpio23;
#X obj 238 242 s gpio24;
#X obj 259 262 s gpio25;
#X connect 0 0 1 0;
#X connect 1 0 2 0;
#X connect 1 1 3 0;
#X connect 1 2 4 0;
#X connect 1 3 5 0;
#X connect 1 4 6 0;
#X connect 1 5 7 0;
#X connect 1 6 8 0;
#X connect 1 7 9 0;
#X connect 1 8 10 0;
