#N canvas -3 51 1070 505 10;
#X obj 57 39 inlet;
#X obj 57 61 sel 0;
#X obj 89 133 abs;
#X msg 57 337 0 0 0 0 0 0 0 0 0;
#X obj 616 287 tgl 15 0 empty empty empty 17 7 0 10 -262144 -1 -1 0
1;
#X obj 656 287 tgl 15 0 empty empty empty 17 7 0 10 -262144 -1 -1 0
1;
#X obj 696 287 tgl 15 0 empty empty empty 17 7 0 10 -262144 -1 -1 0
1;
#X obj 736 287 tgl 15 0 empty empty empty 17 7 0 10 -262144 -1 -1 0
1;
#X obj 776 263 int;
#X obj 776 287 tgl 15 0 empty empty empty 17 7 0 10 -262144 -1 -1 0
1;
#X obj 776 221 % 32;
#X obj 776 241 / 16;
#X obj 816 263 int;
#X obj 816 287 tgl 15 0 empty empty empty 17 7 0 10 -262144 -1 -1 0
1;
#X obj 856 263 int;
#X obj 856 287 tgl 15 0 empty empty empty 17 7 0 10 -262144 -1 -1 0
1;
#X obj 886 263 int;
#X obj 886 287 tgl 15 0 empty empty empty 17 7 0 10 -262144 -1 -1 0
1;
#X obj 816 221 % 16;
#X obj 816 241 / 8;
#X obj 856 221 % 8;
#X obj 856 241 / 4;
#X obj 886 221 % 4;
#X obj 886 241 / 2;
#X obj 916 263 int;
#X obj 916 287 tgl 15 0 empty empty empty 17 7 0 10 -262144 -1 -1 0
1;
#X obj 916 221 % 2;
#X obj 916 241 / 1;
#X obj 616 337 pack f f f f f f f f f;
#X obj 616 164 t f f;
#X msg 616 263 0;
#X msg 656 263 0;
#X msg 696 263 0;
#X msg 736 263 0;
#X obj 89 111 moses 0;
#X obj 216 287 tgl 15 0 empty empty empty 17 7 0 10 -262144 -1 -1 0
1;
#X obj 256 287 tgl 15 0 empty empty empty 17 7 0 10 -262144 -1 -1 0
1;
#X obj 296 287 tgl 15 0 empty empty empty 17 7 0 10 -262144 -1 -1 0
1;
#X obj 336 287 tgl 15 0 empty empty empty 17 7 0 10 -262144 -1 -1 0
1;
#X obj 376 263 int;
#X obj 376 287 tgl 15 0 empty empty empty 17 7 0 10 -262144 -1 -1 0
1;
#X obj 376 221 % 32;
#X obj 376 241 / 16;
#X obj 416 287 tgl 15 0 empty empty empty 17 7 0 10 -262144 -1 -1 0
1;
#X obj 456 287 tgl 15 0 empty empty empty 17 7 0 10 -262144 -1 -1 0
1;
#X obj 496 287 tgl 15 0 empty empty empty 17 7 0 10 -262144 -1 -1 0
1;
#X obj 536 287 tgl 15 0 empty empty empty 17 7 0 10 -262144 -1 -1 0
1;
#X obj 216 337 pack f f f f f f f f f;
#X obj 216 164 t f f;
#X msg 416 263 0;
#X msg 456 263 0;
#X msg 496 263 0;
#X msg 536 263 0;
#X obj 216 263 int;
#X obj 216 221 % 2;
#X obj 216 241 / 1;
#X obj 256 263 int;
#X obj 256 221 % 4;
#X obj 256 241 / 2;
#X obj 296 263 int;
#X obj 296 221 % 8;
#X obj 296 241 / 4;
#X obj 336 263 int;
#X obj 336 221 % 16;
#X obj 336 241 / 8;
#X obj 57 389 outlet;
#X obj 89 85 * 32;
#X connect 0 0 1 0;
#X connect 1 0 3 0;
#X connect 1 1 66 0;
#X connect 2 0 48 0;
#X connect 3 0 65 0;
#X connect 4 0 28 0;
#X connect 5 0 28 1;
#X connect 6 0 28 2;
#X connect 7 0 28 3;
#X connect 8 0 9 0;
#X connect 9 0 28 4;
#X connect 10 0 11 0;
#X connect 11 0 8 0;
#X connect 12 0 13 0;
#X connect 13 0 28 5;
#X connect 14 0 15 0;
#X connect 15 0 28 6;
#X connect 16 0 17 0;
#X connect 17 0 28 7;
#X connect 18 0 19 0;
#X connect 19 0 12 0;
#X connect 20 0 21 0;
#X connect 21 0 14 0;
#X connect 22 0 23 0;
#X connect 23 0 16 0;
#X connect 24 0 25 0;
#X connect 25 0 28 8;
#X connect 26 0 27 0;
#X connect 27 0 24 0;
#X connect 28 0 65 0;
#X connect 29 0 30 0;
#X connect 29 1 10 0;
#X connect 29 1 18 0;
#X connect 29 1 20 0;
#X connect 29 1 22 0;
#X connect 29 1 26 0;
#X connect 29 1 33 0;
#X connect 29 1 32 0;
#X connect 29 1 31 0;
#X connect 30 0 4 0;
#X connect 31 0 5 0;
#X connect 32 0 6 0;
#X connect 33 0 7 0;
#X connect 34 0 2 0;
#X connect 34 1 29 0;
#X connect 35 0 47 0;
#X connect 36 0 47 1;
#X connect 37 0 47 2;
#X connect 38 0 47 3;
#X connect 39 0 40 0;
#X connect 40 0 47 4;
#X connect 41 0 42 0;
#X connect 42 0 39 0;
#X connect 43 0 47 5;
#X connect 44 0 47 6;
#X connect 45 0 47 7;
#X connect 46 0 47 8;
#X connect 47 0 65 0;
#X connect 48 0 54 0;
#X connect 48 1 41 0;
#X connect 48 1 52 0;
#X connect 48 1 51 0;
#X connect 48 1 50 0;
#X connect 48 1 49 0;
#X connect 48 1 63 0;
#X connect 48 1 60 0;
#X connect 48 1 57 0;
#X connect 49 0 43 0;
#X connect 50 0 44 0;
#X connect 51 0 45 0;
#X connect 52 0 46 0;
#X connect 53 0 35 0;
#X connect 54 0 55 0;
#X connect 55 0 53 0;
#X connect 56 0 36 0;
#X connect 57 0 58 0;
#X connect 58 0 56 0;
#X connect 59 0 37 0;
#X connect 60 0 61 0;
#X connect 61 0 59 0;
#X connect 62 0 38 0;
#X connect 63 0 64 0;
#X connect 64 0 62 0;
#X connect 66 0 34 0;
