#N canvas -3 51 450 300 10;
#X obj 109 69 inlet;
#X obj 159 69 inlet;
#X msg 109 133 O;
#X obj 109 175 outlet;
#X obj 109 111 sel \$1;
#X connect 0 0 4 0;
#X connect 1 0 4 1;
#X connect 2 0 3 0;
#X connect 4 0 2 0;
#X connect 4 1 3 0;
