#N canvas 797 116 450 300 10;
#X obj 74 45 inlet;
#X obj 74 67 moses \$1;
#X msg 74 195 0;
#X obj 127 89 moses \$2;
#X msg 180 195 511;
#X obj 127 111 - \$1;
#X obj 127 173 *;
#X obj 258 89 f \$2;
#X obj 226 45 loadbang;
#X obj 258 111 - \$1;
#X obj 226 67 t b b;
#X msg 226 111 512;
#X obj 226 133 /;
#X obj 127 195 int;
#X obj 74 237 outlet;
#X connect 0 0 1 0;
#X connect 1 0 2 0;
#X connect 1 1 3 0;
#X connect 2 0 14 0;
#X connect 3 0 5 0;
#X connect 3 1 4 0;
#X connect 4 0 14 0;
#X connect 5 0 6 0;
#X connect 6 0 13 0;
#X connect 7 0 9 0;
#X connect 8 0 10 0;
#X connect 9 0 12 1;
#X connect 10 0 11 0;
#X connect 10 1 7 0;
#X connect 11 0 12 0;
#X connect 12 0 6 1;
#X connect 13 0 14 0;
