#N canvas 577 114 450 300 10;
#X obj 98 27 inlet;
#X obj 98 49 sel 0 1 2 3 4 5 6 7 8 9;
#X msg 98 71 0 0 0 0 0 0 0 0 0;
#X msg 113 91 1 0 0 0 0 0 0 0 0;
#X msg 129 111 0 1 0 0 0 0 0 0 0;
#X msg 145 131 0 0 1 0 0 0 0 0 0;
#X msg 161 151 0 0 0 1 0 0 0 0 0;
#X msg 176 171 0 0 0 0 1 0 0 0 0;
#X msg 192 191 0 0 0 0 0 1 0 0 0;
#X msg 208 211 0 0 0 0 0 0 1 0 0;
#X msg 225 231 0 0 0 0 0 0 0 1 0;
#X msg 241 251 0 0 0 0 0 0 0 0 1;
#X obj 98 283 outlet;
#X connect 0 0 1 0;
#X connect 1 0 2 0;
#X connect 1 1 3 0;
#X connect 1 2 4 0;
#X connect 1 3 5 0;
#X connect 1 4 6 0;
#X connect 1 5 7 0;
#X connect 1 6 8 0;
#X connect 1 7 9 0;
#X connect 1 8 10 0;
#X connect 1 9 11 0;
#X connect 2 0 12 0;
#X connect 3 0 12 0;
#X connect 4 0 12 0;
#X connect 5 0 12 0;
#X connect 6 0 12 0;
#X connect 7 0 12 0;
#X connect 8 0 12 0;
#X connect 9 0 12 0;
#X connect 10 0 12 0;
#X connect 11 0 12 0;
